<?xml version="1.0" encoding="UTF-8" standalone="no"?>
<svg
   xmlns:dc="http://purl.org/dc/elements/1.1/"
   xmlns:cc="http://creativecommons.org/ns#"
   xmlns:rdf="http://www.w3.org/1999/02/22-rdf-syntax-ns#"
   xmlns:svg="http://www.w3.org/2000/svg"
   xmlns="http://www.w3.org/2000/svg"
   viewBox="0 0 417.55399 244.7541"
   height="244.7541"
   width="417.55399"
   version="1.1"
   id="svg2">
  <metadata
     id="metadata8">
    <rdf:RDF>
      <cc:Work
         rdf:about="">
        <dc:format>image/svg+xml</dc:format>
        <dc:type
           rdf:resource="http://purl.org/dc/dcmitype/StillImage" />
        <dc:title></dc:title>
      </cc:Work>
    </rdf:RDF>
  </metadata>
  <defs
     id="defs6" />
  <path
     id="path3338"
     d="m 163.34394,0.00446062 c -3.4573,0.03676 -6.74883,0.3012 -9.46484,0.820312 -3.45108,0.65960998 -10.40269,3.18914398 -15.44922,5.62109398 -7.50772,3.6180204 -10.8134,6.0145874 -18.18164,13.1855474 -8.5089,8.28109 -9.12054,9.160797 -11.10156,15.962888 -2.6147,8.97795 -5.51489,11.72351 -11.66211,11.03711 -2.266,-0.25301 -4.966,0.006 -6,0.57813 -3.38602,1.87207 -18.17215,14.70132 -18.78516,16.29883 -0.8342,2.17387 -0.23979,3.01849 10.43946,14.875 7.34984,8.16007 10.0406,10.51071 12.03515,10.51171 1.91413,9.7e-4 4.78201,-2.26134 11.25,-8.87109 7.19452,-7.3522 8.68164,-9.40994 8.68164,-12.02148 0,-2.30259 1.111,-4.35699 4.12695,-7.62891 5.57272,-6.04568 8.31412,-6.01453 14.92579,0.16992 4.22397,3.95102 5.29583,4.50266 7.14453,3.67774 1.82636,-0.81494 2.64167,-0.43897 5.09179,2.35156 1.82524,2.07883 3.84186,3.32226 5.38672,3.32226 l 2.46875,0 -3.07226,-3.72656 c -1.69004,-2.05032 -3.07227,-4.30032 -3.07227,-5 0,-2.13702 2.72546,-1.4181 4.66602,1.23047 l 1.83398,2.50195 3.5,-3.01562 c 1.925,-1.65842 4.96582,-3.55206 6.75781,-4.20703 l 3.25782,-1.18946 -4.21289,-4.29296 c -3.28428,-3.34647 -3.94668,-4.55724 -3.00782,-5.4961 1.98301,-1.98301 1.45615,-3.24354 -4.29492,-10.25976 -3.025,-3.690462 -5.5,-7.556451 -5.5,-8.591801 0,-2.58065 5.5384,-8.67594 9.91016,-10.90625 5.40787,-2.75888 10.54738,-3.848082 21.58984,-4.576172 5.5,-0.36265 10.42033,-1.062302 10.93555,-1.552735 1.57692,-1.5010304 -3.36972,-5.7457504 -9.35156,-8.0253904 C 179.35653,0.94578862 170.95,-0.07640838 163.34394,0.00446062 Z m 4.80274,3.60546898 c 8.37656,0.02182 11.95898,0.809995 11.95898,2.634765 0,0.88625 -3.17934,1.207194 -11.75,1.183594 -8.92665,-0.02461 -13.07157,0.416804 -17.25,1.839844 -9.09733,3.0982704 -18.49063,8.4738744 -24.82812,14.2089844 -5.82606,5.27229 -9.17188,6.771885 -9.17188,4.109375 0,-1.45761 8.06732,-8.649555 15.02149,-13.390625 9.91284,-6.7581704 23.05294,-10.6197374 36.01953,-10.5859374 z m 125.38281,0.517578 c -0.85739,-0.0029 -1.68128,0.03302 -2.44922,0.113281 -16.42478,1.71672 -27.64095,13.3595954 -29.82617,30.9609334 -1.09279,8.80217 -1.92659,10.52125 -8.44922,17.41797 l -4.99023,5.27539 3.21484,0 c 1.94772,0 4.96052,1.20219 7.64453,3.04883 4.04853,2.78546 4.83401,4.07153 4.69922,7.70117 -0.0832,2.24047 5.26555,1.37586 7.73242,-1.25 2.54942,-2.71374 5,-3.2888 5,-1.17382 0,0.72912 -1.11265,2.37066 -2.4707,3.64648 -1.35805,1.27582 -2.22996,2.70378 -1.93945,3.17383 0.73809,1.19426 3.15973,1.06723 3.94726,-0.20703 1.33123,-2.15398 6.22599,-3.3158 16.56836,-3.93164 8.69204,-0.51758 11.60785,-1.12237 16.16016,-3.34961 9.55789,-4.67624 16.41953,-14.21318 17.45703,-24.26563 1.04577,-10.132504 -2.65736,-10.815018 -15.72266,-2.89258 -4.98868,3.025 -10.09207,5.5 -11.33984,5.5 -3.21661,0 -8.52207,-5.88554 -10.13477,-11.244137 -1.82006,-6.04758 -0.90693,-7.242357 10.9375,-14.310547 9.62437,-5.74337 11.4238,-7.669871 9.42188,-10.0820314 -1.803,-2.172485 -9.45923,-4.11026 -15.46094,-4.130859 z M 269.50215,27.895086 c 0.80478,0 1.17947,2.322428 1.16796,7.249996 -0.0237,10.1568 3.59195,16.45312 12.68555,22.0918 1.5125,0.93786 2.75,2.14432 2.75,2.68164 0,0.53732 -0.7875,0.97466 -1.75,0.97266 -4.77646,-0.0102 -14.09325,-9.18949 -16.08984,-15.85352 -1.24061,-4.14079 -1.55522,-12.953205 -0.55469,-15.560545 0.33384,-0.86999 1.13978,-1.582031 1.79102,-1.582031 z m -52.93164,20.431636 c -0.25762,-0.0104 -0.49274,-0.01 -0.71094,0.002 -1.45465,0.0781 -2.13059,0.67005 -3.29297,2.08593 -1.95979,2.38725 -6.46094,3.46888 -6.46094,1.55274 0,-2.45249 -3.07124,-3.87226 -7.23047,-3.34375 -4.95132,0.62916 -6.76953,1.79262 -6.76953,4.32812 0,2.87889 -3.83522,3.49791 -6.16601,0.9961 -2.09781,-2.25174 -3.68474,-2.14713 -9.08399,0.59961 -2.07975,1.05802 -2.75,2.13312 -2.75,4.40625 0,3.46228 -2.30486,4.85715 -5.11914,3.09961 -2.68495,-1.67678 -3.79125,-1.46434 -7.63672,1.46875 -2.89033,2.2046 -3.35271,3.0841 -2.87695,5.46289 0.36988,1.84941 0.0313,3.36907 -0.97266,4.37304 -1.81775,1.81776 -1.9697,1.83588 -4.39648,0.53711 -1.52976,-0.81871 -2.51796,-0.31793 -5.42578,2.75 -3.85224,4.06434 -4.20299,5.26902 -2.38282,8.1836 1.65373,2.64805 -0.54039,5.26941 -3.73828,4.46679 -1.94557,-0.4883 -2.65021,0.0688 -4.38476,3.46875 -2.51962,4.93888 -2.56363,5.84874 -0.31641,6.46289 0.9625,0.26302 4.41631,0.40942 7.67578,0.32422 l 5.92578,-0.15625 4.45899,-6.5 c 12.10171,-17.63953 29.50965,-27.6004 50.23047,-28.74218 22.82189,-1.25755 44.59228,9.44733 56.97656,28.01562 2.2843,3.42496 4.67608,6.49991 5.31641,6.83203 0.64033,0.33212 4.30645,0.5571 8.14648,0.5 8.12073,-0.12079 8.96403,-1.19444 5.22656,-6.65429 -1.5608,-2.28008 -3.05578,-3.37726 -4.41015,-3.23438 -2.79399,0.29476 -6.08078,-3.33328 -4.47461,-4.93945 2.07726,-2.07726 1.26541,-5.29948 -2.17774,-8.63672 -2.75257,-2.66789 -3.84908,-3.12735 -6.10742,-2.56055 -3.31041,0.83086 -4.64747,-0.78416 -3.86914,-4.67578 0.45447,-2.27238 -0.0572,-3.09548 -3.29687,-5.29687 -3.90772,-2.65536 -7.3711,-3.41117 -7.3711,-1.60743 0,1.39259 -3.34764,1.25392 -4.80078,-0.19921 -0.66,-0.66001 -1.19922,-2.22373 -1.19922,-3.47461 0,-1.47526 -0.96619,-2.76636 -2.75,-3.67383 -5.21155,-2.65125 -6.8124,-2.76659 -9.23437,-0.66602 -1.27705,1.10758 -2.64838,2.01367 -3.04688,2.01367 -1.12256,0 -2.71461,-2.28781 -3.12304,-4.48828 -0.28596,-1.54056 -1.49434,-2.15729 -5.35743,-2.73242 -1.28058,-0.19065 -2.25059,-0.31659 -3.02343,-0.34766 z m -123.60352,1.56836 c 2.73649,0 0.64183,3.01263 -5.86133,8.42969 -3.85,3.20701 -7,6.13651 -7,6.50977 0,0.37327 0.65929,1.55347 1.4668,2.62109 0.8075,1.06762 1.4825,2.50195 1.5,3.18945 0.0548,2.15371 -2.73126,1.36539 -4.89453,-1.38476 -2.33524,-2.96877 -2.4749,-3.74602 -1.11914,-6.2793 1.20351,-2.24878 14.37796,-13.08594 15.9082,-13.08594 z m 115.07812,19.125 c -11.86056,0.19294 -23.7867,3.98464 -34.22851,11.48633 -7.27621,5.22744 -16.53489,16.24869 -15.3125,18.22656 0.35663,0.57707 4.41801,0.844 9.75977,0.64258 10.40216,-0.39223 12.53257,-1.6009 13.20117,-7.49023 l 0.39648,-3.49024 5.54297,0.33008 c 5.86411,0.34808 7.17221,-0.3578 10.86523,-5.85156 l 1.66602,-2.47852 4.0332,2.25 c 4.92467,2.74804 7.85897,2.81389 11.13672,0.25 3.40685,-2.66487 4.6924,-2.49261 6.42578,0.85938 1.95024,3.77134 6.87091,5.84532 10.56446,4.45117 3.67697,-1.38791 5.68258,-0.0677 5.79297,3.81445 0.14886,5.23612 2.91215,7.0547 11.53515,7.59571 4.13303,0.25932 8.25997,0.0561 9.16992,-0.45313 1.45158,-0.81234 1.19323,-1.52876 -2.09765,-5.8457 -2.06293,-2.70613 -4.90643,-6.04643 -6.32032,-7.42188 -11.73979,-11.42065 -26.88154,-17.12306 -42.13086,-16.875 z m -188.439448,34.894528 -5.041016,2.34766 c -11.6839197,5.44075 -17.1891687,19.09801 -13.3554677,33.13281 2.119159,7.75805 9.5394757,14.91641 17.7167957,17.08985 3.66259,0.97347 45.424096,1.20629 192.179686,1.07617 l 187.5,-0.16602 5,-2.65039 c 9.87963,-5.23822 14.02477,-12.47599 13.94727,-24.34961 -0.0802,-12.29649 -4.35558,-19.21863 -14.90039,-24.1289 l -5.04688,-2.35157 -189,0 -188.999998,0 z m 336.728518,11.03516 c 2.5187,0.0757 5.08198,0.57299 6.80664,1.46484 2.91595,1.5079 4.74906,5.39965 3.49805,7.42383 -0.96587,1.56281 -5.10125,1.28205 -6.53321,-0.44336 -1.68027,-2.02459 -7.6084,-1.96661 -8.39453,0.082 -0.33385,0.86998 -0.60547,4.25468 -0.60547,7.52149 0,5.37967 0.23631,6.04864 2.52149,7.08984 2.14297,0.9764 2.98427,0.80978 5.58007,-1.10937 2.09245,-1.54702 3.81917,-2.06833 5.47657,-1.65235 3.92317,0.98466 2.95864,5.72204 -1.65039,8.10547 -1.55604,0.80465 -5.0543,1.46289 -7.77344,1.46289 -4.07549,0 -5.48862,-0.50879 -8.04883,-2.90039 -3.02602,-2.82677 -3.10568,-3.12825 -3.08398,-11.75 0.0236,-9.38635 1.00356,-11.85002 5.66211,-14.23242 1.55145,-0.79342 4.02622,-1.13818 6.54492,-1.0625 z m -176.375,0.0859 c 0.71969,-0.0108 1.4713,0.0205 2.2539,0.0957 8.61016,0.82733 13.14332,6.32562 7.38086,8.95117 -2.09916,0.95644 -2.87648,0.82446 -4.75,-0.80468 -2.76844,-2.40732 -8.02708,-2.11418 -7.53906,0.41992 0.21703,1.12695 2.22162,2.07745 6.26563,2.97461 7.15306,1.5869 8.29614,2.43269 9.10351,6.73633 0.8678,4.62578 -0.23043,7.31018 -3.9082,9.55273 -2.07343,1.26429 -4.99382,1.92769 -8.48828,1.92969 -4.55696,0.003 -5.74943,-0.4174 -8.25,-2.91797 -3.55727,-3.55726 -3.65503,-4.78636 -0.49414,-6.22656 2.01784,-0.91939 2.8873,-0.74637 5.13476,1.02148 3.16602,2.49039 5.31156,2.67668 7.9961,0.69531 2.7109,-2.00082 0.97011,-3.44568 -5.35352,-4.44531 -8.10471,-1.28118 -11.27229,-5.3597 -9.15234,-11.7832 1.30724,-3.961 4.76292,-6.12368 9.80078,-6.19922 z m -37.57422,0.008 c 4.47681,-0.0507 8.95725,1.55436 10.58984,4.61328 1.68233,3.15212 2.35451,12.6926 1.19727,16.99024 -0.62128,2.30726 -2.27188,5.05106 -3.72656,6.19531 -2.9023,2.28295 -11.11827,2.74978 -15.03907,0.85547 -3.78405,-1.82825 -5.55463,-7.1422 -5.13672,-15.41797 0.32181,-6.37281 0.73375,-7.73764 3.01563,-10.01953 2.13772,-2.13772 5.61764,-3.17738 9.09961,-3.2168 z m 182.9082,0.23828 c 2.51895,0.18775 2.83202,3.53107 2.58789,15.50977 l -0.27539,13.60351 -2.53906,0.29688 c -1.39559,0.16275 -2.85809,-0.0241 -3.25,-0.41602 -0.39192,-0.39191 -0.71094,-6.88549 -0.71094,-14.42968 0,-13.2875 0.0681,-13.73422 2.19727,-14.29102 0.54311,-0.14203 1.02724,-0.23967 1.45703,-0.27148 0.18803,-0.0139 0.36527,-0.0145 0.5332,-0.002 z m -297.765623,0.14063 c 0.611951,-0.0341 1.303274,0.0798 2.142578,0.24023 1.72569,0.32989 3.05592,2.86777 6.851563,13.07227 2.59023,6.96379 4.897806,13.2409 5.128906,13.94922 1.15481,3.53949 -6.648076,2.47696 -8.291016,-1.12891 -1.50219,-3.29695 -8.751066,-3.48663 -10.441406,-0.27344 -0.61155,1.1625 -1.607721,2.44553 -2.212891,2.84961 -1.75912,1.17459 -4.620139,0.87721 -5.162109,-0.53515 -0.27408,-0.71425 1.054632,-5.55175 2.951172,-10.75 5.223806,-14.31803 6.381414,-17.27619 9.033203,-17.42383 z m 224.628903,0.0332 c 5.25374,0.1529 11.26899,1.33344 12.69922,2.76367 2.43076,2.43076 2.38722,10.76101 -0.0703,13.47657 -1.76191,1.94688 -1.75136,2.14035 0.32031,6.20117 2.59499,5.08659 2.03994,7.25189 -1.74609,6.8164 -2.13741,-0.24585 -3.31482,-1.3903 -5.25391,-5.0957 -1.86958,-3.57257 -3.00434,-4.70733 -4.5,-4.5 -1.57169,0.21788 -2.10708,1.24104 -2.5,4.77734 -0.39755,3.57798 -0.90979,4.53875 -2.5,4.68946 -4.29966,0.40751 -4.5,-0.24296 -4.5,-14.64063 l 0,-13.78711 3.25,-0.48437 c 1.38394,-0.20616 3.04954,-0.26777 4.80078,-0.2168 z m -33.32812,0.20703 8.77734,0.0469 0.3125,3.09375 0.3125,3.09179 -6.13281,0 c -5.78806,0 -6.11408,0.12651 -5.8125,2.25 0.25631,1.80474 1.01294,2.28265 3.82031,2.41407 1.925,0.0901 4.0625,0.2026 4.75,0.25 0.70308,0.0485 1.25,1.39854 1.25,3.08593 0,2.9333 -0.11111,3 -5,3 -2.75,0 -5.06789,0.45 -5.15039,1 -0.49308,3.28721 -0.14083,3.51606 6.15039,4 5.92076,0.45544 6.52852,0.71252 6.83594,2.88672 0.18562,1.3128 -0.26438,2.77005 -1,3.23633 -0.73562,0.46627 -5.03263,0.85528 -9.55078,0.86328 -7.27794,0.0136 -8.34227,-0.22109 -9.31836,-2.04492 -1.19096,-2.22533 -0.94969,-25.29249 0.27734,-26.51953 0.38527,-0.38526 4.65123,-0.68 9.47852,-0.6543 z m -115.56836,0.006 c 1.26554,0.006 2.70658,0.0199 4.3457,0.0391 8.8447,0.10346 8.5,-0.0256 8.5,3.1875 0,2.7619 -0.27778,3 -3.5,3 l -3.5,0 0,10.30079 c 0,6.67778 -0.42318,10.72201 -1.20117,11.5 -1.30743,1.30742 -4.07148,1.59453 -5.13281,0.5332 -0.36667,-0.36666 -0.66602,-4.82962 -0.66602,-9.91797 0,-11.56022 -0.31767,-12.41602 -4.60742,-12.41602 -3.10334,0 -3.39258,-0.25611 -3.39258,-3 0,-2.84314 0.29554,-3.2674 9.1543,-3.22656 z m 282.82031,0.008 c 4.95879,-0.0892 15.69419,0.56492 16.24219,1.08008 0.39448,0.37084 0.45394,1.67823 0.13281,2.90625 -0.52168,1.9949 -1.21834,2.23242 -6.53711,2.23242 -5.60147,0 -5.93349,0.13286 -5.63281,2.25 0.27106,1.90856 1.07907,2.32588 5.32031,2.75 4.53333,0.45333 5,0.73333 5,3 0,2.31082 -0.39727,2.52335 -5.25,2.80274 -4.79105,0.27584 -5.25,0.51291 -5.25,2.70312 0,2.24561 0.40213,2.41871 6.25,2.69727 6.2116,0.29589 6.25,0.31529 6.25,3.29687 l 0,3 -9.04883,0.28516 c -4.97667,0.15667 -9.36417,-0.0302 -9.75,-0.41602 -0.38584,-0.38584 -0.70117,-6.92681 -0.70117,-14.53515 0,-10.32851 0.3167,-13.86673 1.25,-13.9668 0.42607,-0.0457 1.01621,-0.0732 1.72461,-0.0859 z m -330.974608,0.21875 3.5,0 3.5,0 0,9.80079 c 0,10.85997 0.613113,12.19921 5.591798,12.19921 4.07246,0 4.4082,-0.95532 4.4082,-12.58203 l 0,-9.41797 3.5,0 3.5,0 0,10.55079 c 0,11.72898 -1.32695,15.86252 -5.61328,17.49218 -3.55836,1.35289 -10.456333,1.12607 -13.277343,-0.4375 -4.12595,-2.28684 -5.036119,-5.31231 -5.074219,-16.85547 l -0.03516,-10.75 z m 244.031248,0 3.5918,0 c 3.41397,0 3.55875,0.13671 2.92578,2.75 -1.42766,5.89417 -8.72104,24.73905 -9.85352,25.45899 -1.51589,0.96373 -3.87487,0.97668 -5.29687,0.0273 -0.94463,-0.63064 -10.39844,-25.79972 -10.39844,-27.68359 0,-0.37035 1.65481,-0.53398 3.67969,-0.36328 3.67083,0.30946 3.69022,0.33488 6.37109,8.59765 1.47881,4.55785 2.89284,8.49246 3.14258,8.74219 0.24974,0.24974 1.6662,-3.59202 3.14649,-8.53711 l 2.6914,-8.99219 z m -157.24609,6.01563 c -3.46869,-0.0196 -4.78516,2.41965 -4.78516,8.86328 0,4.04043 0.42858,5.30862 2.21875,6.5625 2.14435,1.50196 5.26579,1.2798 7.18946,-0.51172 0.49952,-0.4652 0.94473,-3.58355 0.99023,-6.92969 0.0904,-6.65002 -0.82822,-7.95737 -5.61328,-7.98437 z m 112.60742,0.0879 c -2.63607,0.0272 -3.69628,1.36924 -2.92578,3.79687 1.16414,3.66786 8.087,2.24111 7.37305,-1.51953 -0.23063,-1.21483 -1.37068,-1.99693 -3.22071,-2.20898 -0.44014,-0.0504 -0.84998,-0.0722 -1.22656,-0.0684 z m -226.121094,4.11133 c -0.284438,-0.0331 -0.581896,0.63024 -1.162109,2.10156 -0.61057,1.5483 -1.109375,3.2358 -1.109375,3.75 0,0.51419 0.9,0.93359 2,0.93359 2.12579,0 2.493722,-1.95024 1.039062,-5.5 -0.333169,-0.81301 -0.546348,-1.25938 -0.767578,-1.28515 z M 171.1291,161.89557 c -5.51375,0 -10.02344,0.40732 -10.02344,0.9043 0,1.58087 6.32248,8.20764 11.54102,12.0957 9.82733,7.32185 18.28618,10.62235 30.45898,11.88868 13.74011,1.42939 26.85017,-1.82764 38.16992,-9.48243 6.63736,-4.4884 14.83008,-12.43304 14.83008,-14.38281 0,-0.62073 -3.53554,-1.02344 -9,-1.02344 -9.16619,0 -9.66925,0.22858 -9.15039,4.1543 0.23736,1.79591 -2.6916,2.75297 -5.74609,1.87695 -4.3042,-1.23443 -7.6214,0.12769 -10.05469,4.12891 -2.3195,3.81412 -4.29479,4.33215 -6.63867,1.74219 -2.08939,-2.30875 -8.17363,-2.5492 -10.97071,-0.4336 -2.99936,2.2686 -5.16198,1.81321 -7.11914,-1.5 -2.03303,-3.44164 -6.57646,-5.11567 -10.24414,-3.77343 -3.3716,1.23388 -4.6935,0.47389 -5.41015,-3.10938 l -0.61719,-3.08594 -10.02539,0 z m -23.4043,0.002 c -5.67839,0 -6.41188,0.24057 -7.62109,2.5 -1.11377,2.08116 -1.11409,2.91532 -0.008,4.98242 2.30971,4.31573 4.79218,6.38516 6.97461,5.81445 3.16321,-0.8272 5.1719,1.44817 4.49218,5.08985 -0.49155,2.6335 -0.038,3.63892 2.95508,6.53515 3.2242,3.1198 3.76969,3.31415 6.17383,2.21875 3.32933,-1.51695 5.77886,0.16429 5.13672,3.52344 -0.4402,2.30277 0.68346,3.66567 5.01367,6.08594 2.8241,1.57817 4.76036,1.57897 7.2793,0.006 2.48737,-1.55338 5.33721,-0.0317 5.80273,3.09765 0.3699,2.48663 2.2009,3.615 7.37695,4.54883 3.08974,0.55743 3.87462,0.33222 4.78516,-1.36914 1.52571,-2.85082 4.85671,-2.59361 6.01953,0.46484 0.8522,2.24145 1.50912,2.5 6.35938,2.5 4.66691,0 5.63374,-0.34329 7.04687,-2.5 1.96244,-2.99506 4.83683,-3.22905 6.7207,-0.54687 1.22006,1.73708 1.9191,1.84745 6.31641,0.99414 5.26893,-1.02245 6.51662,-2.10845 6.54102,-5.69727 0.0118,-1.72925 0.59423,-2.25 2.51562,-2.25 1.375,0 2.5,0.45 2.5,1 0,1.72819 4.73227,1.08964 8.5293,-1.15039 2.89679,-1.70915 3.55401,-2.63179 3.19726,-4.49804 -0.24689,-1.29153 0.11438,-3.11917 0.80274,-4.06055 1.06634,-1.4583 1.64881,-1.52913 3.9375,-0.48633 2.29227,1.04443 3.0781,0.94447 5.35937,-0.68164 5.1204,-3.64988 6.44744,-5.7113 5.08399,-7.89453 -1.94248,-3.11041 -0.43246,-5.5814 2.99219,-4.89649 3.20277,0.64057 4.7347,-0.62096 7.58593,-6.24414 1.70368,-3.35999 1.69445,-3.43971 -0.6289,-5.22656 -1.61369,-1.24106 -4.10042,-1.82153 -7.86133,-1.83203 -5.12619,-0.0144 -5.65414,0.21364 -7.78125,3.33789 -4.17726,6.13545 -13.31498,14.33146 -20.66211,18.53516 -10.89214,6.23201 -18.88642,8.29191 -32.05664,8.25781 -12.29684,-0.0318 -22.28208,-2.60272 -32.24805,-8.30273 C 169.83309,180.02273 160.95271,171.99042 157,166.24536 l -2.99218,-4.34765 -6.28321,0 z m -11.26562,9.05078 -5.92774,5.53711 c -7.48257,6.98981 -11.5034,9.0767 -20.99414,10.89258 -4.17404,0.79863 -9.01724,2.33793 -10.76172,3.41992 -16.15335,10.01886 -18.75688,32.01265 -5.375,45.39453 4.34344,4.34344 9.03427,6.61554 15.70508,7.61133 9.57195,1.42884 19.57677,-2.24679 25.98633,-9.54688 4.23593,-4.82445 5.78043,-8.67048 7.03711,-17.53125 1.1635,-8.2037 3.83249,-13.41437 9.86719,-19.25781 3.1133,-3.01464 3.80285,-4.23555 2.96093,-5.25 -0.60337,-0.72702 -1.39501,-1.32227 -1.75781,-1.32227 -0.3628,0 -3.92507,3.16499 -7.91797,7.03321 -6.51848,6.31495 -9.17578,7.73166 -9.17578,4.88867 0,-0.52875 3.11044,-4.17942 6.91211,-8.11133 6.6836,-6.91259 6.86057,-7.22512 5.38281,-9.48047 -0.84056,-1.28285 -1.29326,-3.233 -1.00586,-4.33203 0.39751,-1.52007 0.0299,-1.99805 -1.53711,-1.99805 -1.13298,0 -3.71071,-1.78698 -5.72851,-3.97265 l -3.66992,-3.97461 z m 142.54687,3.67773 -1.99023,2.13477 c -1.09424,1.17453 -2.81439,2.13476 -3.82422,2.13476 -1.26578,0 -2.03507,0.9957 -2.47656,3.20313 -0.35221,1.76105 -1.50271,4.12355 -2.55664,5.25 -1.90083,2.0316 -1.87837,2.08792 2.76562,7.17773 2.57489,2.82209 6.22088,6.87209 8.10352,9 1.88265,2.12792 5.48265,6.14013 8,8.91602 18.02969,19.88139 20.70904,23.1562 19.74414,24.12109 -1.26777,1.26777 -4.60842,-1.30265 -10.16602,-7.82031 -6.16106,-7.22536 -7.41959,-8.64138 -19.87695,-22.34766 -3.99907,-4.4 -8.62224,-9.52809 -10.27344,-11.39648 -2.30546,-2.60869 -3.38696,-3.18212 -4.6582,-2.4707 -1.37864,0.77152 2.09916,5.13037 20.79687,26.06836 12.34833,13.82786 23.25153,25.34881 24.23047,25.60351 0.97895,0.25469 2.00625,0.50062 2.28125,0.54492 1.24193,0.20012 5.29072,-2.80144 10.9043,-8.08398 8.45363,-7.95512 8.35796,-9.58719 -1.14258,-19.6211 -3.98043,-4.20386 -11.07749,-11.69453 -15.77148,-16.64453 -4.694,-4.95 -12.03474,-12.77273 -16.3125,-17.38476 l -7.77735,-8.38477 z m -166.60742,24.50196 c 0.64642,0.015 1.46546,0.25497 2.58984,0.7207 1.6474,0.68234 3.43342,0.96952 3.96875,0.63867 1.43985,-0.88987 9.14844,6.9222 9.14844,9.27149 0,1.11065 0.45,2.29679 1,2.63671 0.55,0.33992 1,1.71801 1,3.06055 0,1.34254 -0.45,2.43945 -1,2.43945 -0.55,0 -1,1.58678 -1,3.52539 0,2.8396 -0.48596,3.70887 -2.5,4.47461 -1.375,0.52277 -2.5,1.58937 -2.5,2.36914 0,1.67527 -2.41951,2.79139 -4.40039,2.03125 -0.76937,-0.29523 -1.69549,-0.0562 -2.05859,0.53125 -0.66162,1.07052 -2.48465,1.148 -7.9961,0.33399 -3.49295,-0.51589 -11.0159,-7.59815 -10.23437,-9.63477 0.29249,-0.76222 0.0696,-1.84837 -0.4961,-2.41406 -1.69639,-1.6964 0.0418,-10.70983 2.51368,-13.03516 1.19438,-1.12355 2.75174,-2.74818 3.46093,-3.61132 0.70918,-0.86313 2.30551,-1.57032 3.54883,-1.57032 1.24331,0 2.77684,-0.51512 3.40625,-1.14453 0.42958,-0.42958 0.90241,-0.63808 1.54883,-0.62304 z"
     style="fill:#d12f22;fill-opacity:1" />
</svg>
