<?xml version="1.0" encoding="UTF-8" standalone="no"?>
<svg
   xmlns:dc="http://purl.org/dc/elements/1.1/"
   xmlns:cc="http://creativecommons.org/ns#"
   xmlns:rdf="http://www.w3.org/1999/02/22-rdf-syntax-ns#"
   xmlns:svg="http://www.w3.org/2000/svg"
   xmlns="http://www.w3.org/2000/svg"
   viewBox="0 0 336.10864 463.74014"
   height="463.74014"
   width="336.10864"
   version="1.1"
   id="svg2">
  <metadata
     id="metadata8">
    <rdf:RDF>
      <cc:Work
         rdf:about="">
        <dc:format>image/svg+xml</dc:format>
        <dc:type
           rdf:resource="http://purl.org/dc/dcmitype/StillImage" />
        <dc:title></dc:title>
      </cc:Work>
    </rdf:RDF>
  </metadata>
  <defs
     id="defs6" />
  <path
     id="path3344"
     d="M 25.250002,452.04808 C 2.44702,441.61748 -1.84188,439.04661 0.81781,437.40283 c 0.69915,-0.4321 43.937992,-12.44328 117.39004,-32.6094 27.24949,-7.4813 32.35291,-6.1097 17.01583,4.57319 -4.79803,3.34201 -24.09607,16.95451 -42.884538,30.25 -30.83498,21.82008 -34.53464,24.16425 -38,24.07749 -2.63145,-0.0659 -11.78209,-3.7294 -29.08914,-11.64603 z M 246.5,441.67034 c -17.05,-12.11066 -36.29152,-25.70055 -42.75894,-30.19975 -7.3065,-5.08292 -11.65775,-8.74832 -11.49168,-9.68036 0.58238,-3.26869 7.58598,-1.99023 43.75062,7.98638 20.075,5.53802 48.875,13.46015 64,17.60473 34.52383,9.46029 35.43815,9.75595 35.7909,11.57342 0.40972,2.11091 -49.87406,24.85593 -54.79416,24.78522 -2.91433,-0.0419 -8.66004,-3.71776 -34.49674,-22.06964 z M 69.401462,365.41993 C 33.047262,355.35522 2.55976,346.83527 1.65146,346.48672 0.74316,346.13818 0,345.23251 0,344.47414 c 0,-1.9547 50.517822,-24.72454 54.803692,-24.70159 2.70616,0.0145 11.06711,5.48884 46.227618,30.26768 27.45374,19.34761 42.83879,30.79061 42.68769,31.75 -0.56775,3.60476 -8.39222,1.88123 -74.317538,-16.3703 z m 93.788288,16.79065 c -1.24039,-0.8688 -5.22483,-7.5063 -8.85431,-14.75 C 138.00413,334.86664 123.75153,311.91535 82.712152,252.12396 43.787052,195.4129 32.000002,167.55989 32.000002,132.29023 32.000002,70.255446 77.160372,15.901104 140,2.30305 c 11.63379,-2.51747101 37.42784,-3.09925901 49,-1.105202 45.08231,7.768357 81.78493,34.443486 101.6405,73.871371 16.18461,32.138341 17.64147,71.186121 3.9565,106.044871 -7.93594,20.21465 -19.56053,39.6563 -50.0318,83.67614 -29.52911,42.65874 -47.06913,71.10775 -61.82578,100.27819 -4.39001,8.678 -8.92741,16.4405 -10.08313,17.25 -2.7359,1.9163 -6.64018,1.87182 -9.46654,-0.10784 z m 25.39718,-169.50622 c 4.34012,-1.13678 11.94606,-4.14757 16.9021,-6.69065 7.32108,-3.75664 10.80192,-6.41471 18.56083,-14.17362 7.7682,-7.7682 10.41531,-11.23645 14.18877,-18.59017 6.7918,-13.23583 9.17063,-23.1854 9.07572,-37.95969 -0.1325,-20.62739 -6.89902,-38.327382 -20.10499,-52.591052 C 210.69023,64.85699 192.26821,56.628552 168.5,56.47587 c -14.77429,-0.09491 -24.72386,2.28392 -37.95969,9.075721 -7.35372,3.773467 -10.82197,6.420577 -18.59017,14.188777 -7.7682,7.7682 -10.41531,11.23645 -14.188768,18.59017 -6.7918,13.235832 -9.17063,23.185402 -9.07572,37.959692 0.0904,14.07978 2.19259,23.33668 7.85124,34.57326 12.039018,23.90629 33.723568,39.76419 60.002028,43.87945 8.37591,1.31168 22.74727,0.39752 32.04801,-2.03858 z M 158.5,174.91209 c -11.25249,-2.94693 -21.60686,-11.47079 -26.78308,-22.0482 -3.00603,-6.14271 -3.21585,-7.26201 -3.20067,-17.07366 0.0151,-9.7602 0.24177,-10.96316 3.21693,-17.07366 3.91229,-8.03521 11.96538,-15.96601 20.01367,-19.709732 5.07357,-2.36001 6.99344,-2.67851 16.25315,-2.69637 9.3384,-0.018 11.13641,0.278 16.25264,2.67565 8.04757,3.771362 16.1042,11.707332 20.03044,19.730452 3.00727,6.14525 3.2156,7.25795 3.19668,17.07366 -0.0179,9.25971 -0.33636,11.17958 -2.69637,16.25315 -3.76623,8.09668 -11.67909,16.11355 -19.70973,19.96881 -5.5336,2.65651 -7.91849,3.19772 -15.07366,3.42069 -4.675,0.14569 -9.85,-0.0887 -11.5,-0.52079 z m 34.75,208.21586 c -2.71122,-1.094 -0.70193,-3.16848 11.03806,-11.39615 6.71657,-4.70713 26.00686,-18.31963 42.86731,-30.25 25.33706,-17.92836 31.24164,-21.69157 34.03465,-21.69157 2.1682,0 12.46136,4.107 28.7211,11.45981 13.938,6.30289 25.56551,11.68348 25.83889,11.95687 1.25677,1.25677 -0.92645,3.38841 -4.41352,4.30927 -2.11007,0.55722 -20.26149,5.54294 -40.33649,11.07938 -98.65177,27.20692 -94.0093,26.0418 -97.75,24.53239 z"
     style="fill:#d12f22;fill-opacity:1" />
</svg>
